<?xml version="1.0" encoding="utf-8"?>
<!-- Generator: Adobe Illustrator 21.1.0, SVG Export Plug-In . SVG Version: 6.00 Build 0)  -->
<svg version="1.1" id="Слой_1" xmlns="http://www.w3.org/2000/svg" xmlns:xlink="http://www.w3.org/1999/xlink" x="0px" y="0px"
	 viewBox="0 0 452.6 439.7" style="enable-background:new 0 0 452.6 439.7;" xml:space="preserve">
<style type="text/css">
	.st0{fill:#1B1C20;}
</style>
<path class="st0" d="M222.9,439.7c-59.6,0-115.6-23.2-157.7-65.3c-87-87-87-228.5-0.1-315.5C94.4,29.8,130.4,9.6,170,0
	c-3.5,2-6.9,4-10.2,6.1c-34.6,10.3-66.5,29.4-92.3,55.2c-85.7,85.6-85.6,225.1,0,310.8c41.5,41.5,96.7,64.4,155.4,64.4
	c58.7,0,113.9-22.9,155.4-64.4c34.8-34.8,56.4-79.2,62.5-128.3c0.1-0.8-0.3-1.5-0.9-1.9c-2.4-1.5-3.9-4.2-3.9-7
	c0-4.6,3.7-8.3,8.3-8.3c4.6,0,8.3,3.7,8.3,8.3c0,4.1-3.1,7.6-7.2,8.2c-0.9,0.1-1.6,0.8-1.7,1.7c-6.3,49.7-28.1,94.6-63.1,129.6
	C338.5,416.5,282.5,439.7,222.9,439.7z M89.4,260.5c-0.7,0-1.3-0.6-1.3-1.3s0.6-1.3,1.3-1.3h23.9c1.1,0,2-0.9,2-1.9
	c1.6-61.7,48.6-111.4,107-113.1c0.6,0,1.1-0.3,1.5-0.7c0.4-0.5,0.5-1.1,0.4-1.6c0-0.1,0-0.2,0-0.3v-24.4c0-0.7,0.6-1.3,1.3-1.3
	c0.7,0,1.3,0.6,1.3,1.3v24.4c0,0.1,0,0.2,0,0.3c-0.1,0.6,0,1.2,0.4,1.6s0.9,0.7,1.5,0.7c58.4,1.8,105.4,51.5,107,113.1
	c0,1.1,0.9,1.9,2,1.9h23.9c0.7,0,1.3,0.6,1.3,1.3s-0.6,1.3-1.3,1.3H89.4z M225.5,145.4c-57.6,0-105.9,49.5-107.6,110.4
	c0,0.5,0.2,1.1,0.6,1.5c0.4,0.4,0.9,0.6,1.4,0.6H331c0.5,0,1.1-0.2,1.4-0.6c0.4-0.4,0.6-0.9,0.6-1.5
	C331.4,195,283.1,145.4,225.5,145.4z"/>
</svg>
