<svg xmlns="http://www.w3.org/2000/svg" viewBox="0 0 250.61 247"><defs><style>.cls-1{fill:#1b1c20;}</style></defs><title>Ресурс 1</title><g id="Слой_2" data-name="Слой 2"><g id="Слой_1-2" data-name="Слой 1"><path class="cls-1" d="M110.15,247A123.85,123.85,0,0,1,87.26,5.61,123.46,123.46,0,0,1,245.8,102.46a5.67,5.67,0,1,1-3.74.7c-.09-.15-.17-.3-.26-.46a121.73,121.73,0,0,0-3.44-14.19A119.81,119.81,0,0,0,17.9,68,119.77,119.77,0,0,0,68,229.88a120.36,120.36,0,0,0,23.8,9.47A140.08,140.08,0,0,0,110.15,247Z"/><path class="cls-1" d="M102.41,205a2.13,2.13,0,0,1-2.13-2.12v-115A31.93,31.93,0,0,1,132.18,56h17.11a2.12,2.12,0,1,1,0,4.25H132.18a27.67,27.67,0,0,0-27.64,27.64v115A2.12,2.12,0,0,1,102.41,205Z"/><path class="cls-1" d="M149.29,132.91H116.82a2.12,2.12,0,1,1,0-4.25h32.47a2.12,2.12,0,1,1,0,4.25Z"/><path class="cls-1" d="M91.12,132.91H74.88a2.12,2.12,0,0,1,0-4.25H91.12a2.12,2.12,0,1,1,0,4.25Z"/></g></g></svg>