<svg xmlns="http://www.w3.org/2000/svg" viewBox="0 0 240.38 253"><defs><style>.cls-1{fill:#1b1c20;}</style></defs><title>Ресурс 3</title><g id="Слой_2" data-name="Слой 2"><g id="Слой_1-2" data-name="Слой 1"><path class="cls-1" d="M240.38,177.75A125.71,125.71,0,1,1,141.17,3.24a5.74,5.74,0,1,1-.44,3.82l-.53.11a122.81,122.81,0,0,0-14.76-.92A121.33,121.33,0,0,0,39.62,213.39a121.3,121.3,0,0,0,171.59,0,121.76,121.76,0,0,0,16.29-20.18A141.82,141.82,0,0,0,240.38,177.75ZM98.68,76.2A2,2,0,0,0,99.42,79l80.27,46.34L99.42,171.67a2,2,0,1,0,2,3.51l83.32-48.11a2,2,0,0,0,0-3.51l-83.32-48.1A2,2,0,0,0,98.68,76.2Z"/></g></g></svg>