<?xml version="1.0" encoding="utf-8"?>
<!-- Generator: Adobe Illustrator 21.1.0, SVG Export Plug-In . SVG Version: 6.00 Build 0)  -->
<svg version="1.1" id="Слой_1" xmlns="http://www.w3.org/2000/svg" xmlns:xlink="http://www.w3.org/1999/xlink" x="0px" y="0px"
	 viewBox="0 0 406.7 436.7" style="enable-background:new 0 0 406.7 436.7;" xml:space="preserve">
<style type="text/css">
	.st0{fill:#1B1C20;}
</style>
<path class="st0" d="M216.4,436.7c-57.8,0-112.2-22.5-153-63.4C22.5,332.4,0,278,0,220.2c0-57.8,22.5-112.2,63.4-153
	c40.9-40.9,95.3-63.4,153.1-63.4c8.7,0,17.6,0.6,27.1,1.8c0.1,0,0.2,0,0.2,0c0.7,0,1.4-0.4,1.7-1.1c1.4-2.8,4.1-4.5,7.2-4.5
	c4.5,0,8.1,3.6,8.1,8.1c0,4.5-3.6,8.1-8.1,8.1c-3.8,0-7-2.6-7.8-6.2c-0.1-0.5-0.4-0.9-0.9-1.2c-0.3-0.2-0.7-0.3-1-0.3
	c-0.2,0-0.3,0-0.5,0.1c-0.1,0-0.3,0.1-0.4,0.1c0,0-0.1,0-0.1,0c-8.8-1-17.4-1.6-25.6-1.6c-57,0-110.6,22.2-150.9,62.5
	C25.3,109.7,3.2,163.3,3.2,220.2c0,57,22.2,110.5,62.5,150.8c40.3,40.3,93.8,62.5,150.8,62.5c57,0,110.5-22.2,150.7-62.5
	c10.7-10.7,20.3-22.5,28.5-35.3c3.8-4,7.5-8.1,11-12.2c-9.9,18.3-22.4,34.9-37.3,49.8C328.6,414.1,274.3,436.7,216.4,436.7z
	 M172.9,301.6c-0.6,0-1.1-0.3-1.4-0.8c-0.4-0.8-0.2-1.7,0.6-2.2l139.8-80.7c0.6-0.3,1-1,1-1.7c0-0.7-0.4-1.3-1-1.7l-139.8-80.7
	c-0.8-0.4-1-1.4-0.6-2.2c0.3-0.5,0.8-0.8,1.4-0.8c0.3,0,0.6,0.1,0.8,0.2l145.1,83.8c0.5,0.3,0.8,0.8,0.8,1.4c0,0.6-0.3,1.1-0.8,1.4
	l-145.1,83.8C173.5,301.6,173.2,301.6,172.9,301.6z"/>
</svg>
