<?xml version="1.0" encoding="utf-8"?>
<!-- Generator: Adobe Illustrator 21.1.0, SVG Export Plug-In . SVG Version: 6.00 Build 0)  -->
<svg version="1.1" id="Слой_1" xmlns="http://www.w3.org/2000/svg" xmlns:xlink="http://www.w3.org/1999/xlink" x="0px" y="0px"
	 viewBox="0 0 434.8 452.7" style="enable-background:new 0 0 434.8 452.7;" xml:space="preserve">
<style type="text/css">
	.st0{fill:#1B1C20;}
</style>
<path class="st0" d="M211.8,452.7c-59.6,0-115.6-23.2-157.8-65.3c-24.7-24.7-43.2-54.9-54.1-88c2.2,3.3,4.5,6.5,6.9,9.5
	c11.1,28.8,27.7,54.4,49.5,76.2c41.5,41.5,96.7,64.4,155.5,64.4c58.7,0,113.9-22.8,155.4-64.3c85.7-85.7,85.6-225.1-0.1-310.8
	c-35.9-35.9-81.6-57.7-132-63c-0.1,0-0.1,0-0.2,0c-0.7,0-1.4,0.4-1.8,1c-1.5,2.7-4.3,4.4-7.3,4.4c-4.6,0-8.3-3.7-8.3-8.3
	S221.4,0,226,0c3.9,0,7.2,2.7,8.1,6.5c0.2,0.8,0.9,1.5,1.7,1.5c51,5.4,97.2,27.5,133.7,64c87,87,87,228.5,0.1,315.5
	C327.4,429.5,271.4,452.7,211.8,452.7z M348.1,334.9c-0.2,0-0.4,0-0.6-0.1l-127.4-56.3c-0.3-0.1-0.5-0.2-0.8-0.2
	c-0.3,0-0.5,0.1-0.8,0.2L87.4,333c-0.2,0.1-0.4,0.1-0.6,0.1c-0.7,0-1.3-0.4-1.5-1c-0.3-0.8,0-1.8,0.9-2.1l130.3-54.2
	c0.7-0.3,1.2-1,1.2-1.8v-38c0-1.1-0.8-1.9-1.9-2c-16.7-0.9-32.4-7.8-44.2-19.7c-26.3-26.3-26.4-69.2-0.1-95.6
	C184.2,106,201.2,99,219.3,99s35,7,47.8,19.7c0.3,0.3,0.5,0.7,0.5,1.2c0,0.4-0.2,0.8-0.5,1.2c-0.3,0.3-0.7,0.5-1.2,0.5
	s-0.8-0.2-1.2-0.5c-12.1-12.1-28.2-18.8-45.4-18.8c-17.2,0-33.3,6.7-45.5,18.8c-25,25.1-25,65.9,0.1,90.9
	c12.1,12.1,28.2,18.8,45.4,18.8c0.9,0,1.6,0.7,1.6,1.6V274c0,0.8,0.5,1.5,1.2,1.8l126.6,56c0.4,0.2,0.7,0.5,0.9,0.9
	c0.2,0.4,0.1,0.8,0,1.2C349.3,334.5,348.8,334.9,348.1,334.9z"/>
</svg>
