<?xml version="1.0" encoding="utf-8"?>
<!-- Generator: Adobe Illustrator 21.1.0, SVG Export Plug-In . SVG Version: 6.00 Build 0)  -->
<svg version="1.1" id="Слой_1" xmlns="http://www.w3.org/2000/svg" xmlns:xlink="http://www.w3.org/1999/xlink" x="0px" y="0px"
	 viewBox="0 0 452 437" style="enable-background:new 0 0 452 437;" xml:space="preserve">
<style type="text/css">
	.st0{fill:#1B1C20;}
</style>
<path class="st0" d="M344.3,255.1c-0.9,0-1.6-0.7-1.6-1.6V230c0-0.9,0.7-1.6,1.6-1.6c0.9,0,1.6,0.7,1.6,1.6v23.4
	C345.9,254.3,345.2,255.1,344.3,255.1z"/>
<path class="st0" d="M162,435.8c-36.3-10.3-69.4-29.7-96.5-56.8c-42-42-65.2-97.9-65.2-157.3c0-59.4,23.1-115.3,65.1-157.3
	c42-42,97.9-65.2,157.4-65.2c59.4,0,115.3,23.1,157.3,65.2c38.7,38.7,61.7,90.3,64.6,145.2c0,0.8,0.6,1.5,1.4,1.8
	c3.5,1.1,5.8,4.3,5.8,7.9c0,4.6-3.7,8.3-8.3,8.3s-8.3-3.7-8.3-8.3c0-3.4,2.1-6.5,5.3-7.7c1-0.4,1.5-1.5,1.1-2.6
	c-0.1-0.2-0.1-0.4-0.2-0.6c-0.1-0.2-0.1-0.3-0.2-0.5c-3.3-53.4-25.9-103.5-63.6-141.2c-41.4-41.4-96.4-64.2-155-64.2
	c-58.6,0-113.6,22.8-155.1,64.2c-36.1,36.1-57.9,81.9-63,132.4c-0.1,0.6,0.1,1.1,0.5,1.5c0.4,0.4,0.9,0.7,1.5,0.7h140
	c1.1,0,1.9-0.8,2-1.9c1.8-37.3,28.1-66.5,59.9-66.5c32.3,0.3,122.2,66.3,126,69.1c0.4,0.3,0.7,0.8,0.7,1.3c0,0.5-0.3,1-0.7,1.3
	c-3.8,2.8-94.2,68.4-126.6,68.4c-14.2,0-27.9-6-38.7-16.8c-12.4-12.4-19.9-30.6-20.7-49.7c0-1.1-0.9-1.9-2-1.9H6.7
	c-0.1,0-0.1,0-0.2,0c-0.1,0-0.2,0-0.3,0c-0.4,0-0.9,0.2-1.2,0.4c-0.4,0.3-0.7,0.9-0.7,1.4c-0.4,5.8-0.6,10.7-0.6,15.3
	c0,58.5,22.8,113.6,64.2,155c23.8,23.8,51.8,41.4,83.3,52.2C154.8,431.4,158.4,433.7,162,435.8z M151.9,203.2
	c0,19.6,7.2,38.1,19.9,50.8c10.1,10.2,23,15.8,36.3,15.8c27.3,0,99.2-49.6,120.6-64.9c0.5-0.4,0.8-1,0.8-1.6c0-0.6-0.3-1.2-0.8-1.6
	c-21.3-15.3-92.9-65.2-120-65.5c0,0,0,0,0,0c-31,0-56.5,29.9-56.8,66.6c0,0.1,0,0.1,0,0.2c0,0,0,0,0,0
	C151.9,203.1,151.9,203.2,151.9,203.2z"/>
</svg>
