<svg xmlns="http://www.w3.org/2000/svg" viewBox="0 0 252.58 247"><defs><style>.cls-1{fill:#1b1c20;}</style></defs><title>Ресурс 6</title><g id="Слой_2" data-name="Слой 2"><g id="Слой_1-2" data-name="Слой 1"><path class="cls-1" d="M158,186.54H94.57a31.35,31.35,0,0,1-31.32-31.31V91.78A31.35,31.35,0,0,1,94.57,60.46H158a31.35,31.35,0,0,1,31.31,31.32v63.45A31.35,31.35,0,0,1,158,186.54ZM94.57,64.74a27.07,27.07,0,0,0-27,27v63.45a27.07,27.07,0,0,0,27,27H158a27.07,27.07,0,0,0,27-27V91.78a27.07,27.07,0,0,0-27-27Z"/><path class="cls-1" d="M126.29,151.13a27.62,27.62,0,1,1,27.62-27.62A27.66,27.66,0,0,1,126.29,151.13Zm0-51a23.35,23.35,0,1,0,23.35,23.35A23.38,23.38,0,0,0,126.29,100.15Z"/><path class="cls-1" d="M160.33,96.35a6.81,6.81,0,1,1,6.81-6.81A6.82,6.82,0,0,1,160.33,96.35Zm0-9.35a2.54,2.54,0,1,0,2.54,2.54A2.54,2.54,0,0,0,160.33,87Z"/><path class="cls-1" d="M36.39,34.5A123.54,123.54,0,0,1,102.51,0,134,134,0,0,0,90,7.07,119.83,119.83,0,0,0,39.23,37.34c-47,46.94-46.94,123.36,0,170.35a120.32,120.32,0,0,0,204.58-70.3,5.71,5.71,0,1,1,3.82.81A124.28,124.28,0,0,1,36.41,210.55C-12.13,162-12.14,83,36.39,34.5Z"/></g></g></svg>