<svg xmlns="http://www.w3.org/2000/svg" viewBox="0 0 246.11 254"><defs><style>.cls-1{fill:#1b1c20;}</style></defs><title>Ресурс 4</title><g id="Слой_2" data-name="Слой 2"><g id="Слой_1-2" data-name="Слой 1"><path class="cls-1" d="M209.53,217.37A125.09,125.09,0,0,1,0,160.57a138.43,138.43,0,0,0,8,11.77,121.12,121.12,0,0,0,198.65,42.17c47.21-47.21,47.19-124,0-171.28A120.12,120.12,0,0,0,133.91,8.49a5.72,5.72,0,1,1,.57-4,124.11,124.11,0,0,1,75,35.9C258.3,89.17,258.32,168.58,209.53,217.37ZM51.46,187.49a2.18,2.18,0,0,0,.78-.15L125.15,157,196,188.31a2,2,0,0,0,.82.17,2,2,0,0,0,.82-3.87L127.2,153.49V130.36a2,2,0,0,0-2-2,34.36,34.36,0,0,1-24.47-10.13,34.62,34.62,0,1,1,48.93-49,2,2,0,0,0,2.86-2.86,38.67,38.67,0,1,0-54.66,54.72,38.33,38.33,0,0,0,25.3,11.26v21.13L50.68,183.59a2,2,0,0,0,.78,3.9Z"/></g></g></svg>