<svg xmlns="http://www.w3.org/2000/svg" viewBox="0 0 253.6 248"><defs><style>.cls-1{fill:#1b1c20;}</style></defs><title>Ресурс 2</title><g id="Слой_2" data-name="Слой 2"><g id="Слой_1-2" data-name="Слой 1"><path class="cls-1" d="M36.53,34.64A124.05,124.05,0,0,1,102.93,0,134.3,134.3,0,0,0,90.34,7.1a120.3,120.3,0,0,0-51,30.4c-47.14,47.13-47.13,123.86,0,171A120.81,120.81,0,0,0,244.82,138a5.74,5.74,0,1,1,3.84.82A124.78,124.78,0,0,1,36.56,211.4C-12.18,162.64-12.19,83.35,36.53,34.64Zm150.3,113.84a1.84,1.84,0,0,1-1.84-1.84c0-34.24-26.31-62.09-58.64-62.09S67.69,112.4,67.69,146.64a1.84,1.84,0,1,1-3.69,0c0-36.27,28-65.78,62.35-65.78s62.33,29.51,62.33,65.78A1.85,1.85,0,0,1,186.83,148.48Zm-60.48-66.1a1.85,1.85,0,0,1-1.85-1.84V67a1.85,1.85,0,0,1,3.69,0V80.54A1.84,1.84,0,0,1,126.35,82.38Zm75.58,66.1H50.75a1.85,1.85,0,0,1,0-3.69H201.93a1.85,1.85,0,0,1,0,3.69Z"/></g></g></svg>